HIERARCHY
ROOT Hips
{
    OFFSET 0 0 0
    CHANNELS 6 Xposition Yposition Zposition Zrotation Xrotation Yrotation

    JOINT Spine
    {
        OFFSET 0 10 0
        CHANNELS 3 Zrotation Xrotation Yrotation

        JOINT Spine1
        {
            OFFSET 0 10 0
            CHANNELS 3 Zrotation Xrotation Yrotation

            JOINT Spine2
            {
                OFFSET 0 10 0
                CHANNELS 3 Zrotation Xrotation Yrotation

                JOINT Neck
                {
                    OFFSET 0 10 0
                    CHANNELS 3 Zrotation Xrotation Yrotation

                    JOINT Head
                    {
                        OFFSET 0 5 0
                        CHANNELS 3 Zrotation Xrotation Yrotation
                    }
                }

                JOINT LeftShoulder
                {
                    OFFSET 5 5 0
                    CHANNELS 3 Zrotation Xrotation Yrotation

                    JOINT LeftArm
                    {
                        OFFSET 10 0 0
                        CHANNELS 3 Zrotation Xrotation Yrotation

                        JOINT LeftForeArm
                        {
                            OFFSET 10 0 0
                            CHANNELS 3 Zrotation Xrotation Yrotation

                            JOINT LeftHand
                            {
                                OFFSET 10 0 0
                                CHANNELS 3 Zrotation Xrotation Yrotation
                            }
                        }
                    }
                }

                JOINT RightShoulder
                {
                    OFFSET -5 5 0
                    CHANNELS 3 Zrotation Xrotation Yrotation

                    JOINT RightArm
                    {
                        OFFSET -10 0 0
                        CHANNELS 3 Zrotation Xrotation Yrotation

                        JOINT RightForeArm
                        {
                            OFFSET -10 0 0
                            CHANNELS 3 Zrotation Xrotation Yrotation

                            JOINT RightHand
                            {
                                OFFSET -10 0 0
                                CHANNELS 3 Zrotation Xrotation Yrotation
                            }
                        }
                    }
                }
            }
        }
    }

    JOINT LeftUpLeg
    {
        OFFSET 5 0 0
        CHANNELS 3 Zrotation Xrotation Yrotation

        JOINT LeftLeg
        {
            OFFSET 0 -20 0
            CHANNELS 3 Zrotation Xrotation Yrotation

            JOINT LeftFoot
            {
                OFFSET 0 -20 5
                CHANNELS 3 Zrotation Xrotation Yrotation
            }
        }
    }

    JOINT RightUpLeg
    {
        OFFSET -5 0 0
        CHANNELS 3 Zrotation Xrotation Yrotation

        JOINT RightLeg
        {
            OFFSET 0 -20 0
            CHANNELS 3 Zrotation Xrotation Yrotation

            JOINT RightFoot
            {
                OFFSET 0 -20 5
                CHANNELS 3 Zrotation Xrotation Yrotation
            }
        }
    }
}

MOTION
Frames: 19
Frame Time: 0.033198
59.150168 0.008783 -46.820405 0.000000 0.000000 0.000000 33.139105 -79.272488 0.000000 -78.028811 2.700245 0.000000 168.506980 -11.757865 0.000000 0.000000 0.000000 0.000000 0.000000 0.000000 0.000000 -177.338839 40.678193 0.000000 -146.575991 1.369542 0.000000 0.000000 0.000000 0.000000 0.000000 0.000000 0.000000 -174.017876 34.505389 0.000000 153.901127 -2.014567 0.000000 0.000000 0.000000 0.000000 0.000000 0.000000 0.000000 63.843704 80.203233 0.000000 4.123389 20.444111 0.000000 0.000000 0.000000 0.000000 -28.958928 80.325410 0.000000 -1.361681 21.953843 0.000000 0.000000 0.000000 0.000000
59.337622 0.008798 -46.834633 0.000000 0.000000 0.000000 45.310301 -81.019706 0.000000 -81.142772 2.723308 0.000000 167.674116 -12.025636 0.000000 0.000000 0.000000 0.000000 0.000000 0.000000 0.000000 -178.199067 42.555726 0.000000 -142.502810 1.685612 0.000000 0.000000 0.000000 0.000000 0.000000 0.000000 0.000000 -173.456493 30.800677 0.000000 151.144491 -2.434319 0.000000 0.000000 0.000000 0.000000 0.000000 0.000000 0.000000 61.808005 80.441387 0.000000 4.041278 19.307301 0.000000 0.000000 0.000000 0.000000 -29.346637 79.147628 0.000000 -1.342892 21.045957 0.000000 0.000000 0.000000 0.000000
59.650743 0.008817 -46.824354 0.000000 0.000000 0.000000 60.514584 -80.841211 0.000000 -80.318057 2.537884 0.000000 167.050320 -11.986169 0.000000 0.000000 0.000000 0.000000 0.000000 0.000000 0.000000 -177.604846 43.836775 0.000000 -141.416910 1.582028 0.000000 0.000000 0.000000 0.000000 0.000000 0.000000 0.000000 -171.537797 31.019796 0.000000 150.590803 -2.335414 0.000000 0.000000 0.000000 0.000000 0.000000 0.000000 0.000000 60.704794 80.703014 0.000000 4.018781 19.435471 0.000000 0.000000 0.000000 0.000000 -34.118388 78.231974 0.000000 -1.325186 21.193737 0.000000 0.000000 0.000000 0.000000
60.019431 0.009302 -46.801187 0.000000 0.000000 0.000000 97.264493 -80.036273 0.000000 -76.106994 2.186958 0.000000 166.816718 -11.870938 0.000000 0.000000 0.000000 0.000000 0.000000 0.000000 0.000000 -174.573454 43.611435 0.000000 -139.166455 1.457396 0.000000 0.000000 0.000000 0.000000 0.000000 0.000000 0.000000 -169.077098 31.867666 0.000000 150.597682 -2.201271 0.000000 0.000000 0.000000 0.000000 0.000000 0.000000 0.000000 61.772265 81.356667 0.000000 3.995159 19.908899 0.000000 0.000000 0.000000 0.000000 -41.682009 77.519889 0.000000 -1.012968 21.179798 0.000000 0.000000 0.000000 0.000000
60.492676 0.009246 -46.807624 0.000000 0.000000 0.000000 99.478188 -78.807212 0.000000 -74.749941 1.737915 0.000000 166.313985 -11.798424 0.000000 0.000000 0.000000 0.000000 0.000000 0.000000 0.000000 -171.964148 42.129362 0.000000 -138.613802 1.277239 0.000000 0.000000 0.000000 0.000000 0.000000 0.000000 0.000000 -168.294985 31.960805 0.000000 150.580143 -2.066125 0.000000 0.000000 0.000000 0.000000 0.000000 0.000000 0.000000 79.734201 82.844165 0.000000 3.731721 19.853748 0.000000 0.000000 0.000000 0.000000 -51.346852 76.817361 0.000000 -0.237824 21.198394 0.000000 0.000000 0.000000 0.000000
60.884601 0.009189 -46.827471 0.000000 0.000000 0.000000 99.514566 -77.975509 0.000000 -76.387960 1.195460 0.000000 165.327185 -11.816663 0.000000 0.000000 0.000000 0.000000 0.000000 0.000000 0.000000 -169.191478 40.659433 0.000000 -141.674028 0.743380 0.000000 0.000000 0.000000 0.000000 0.000000 0.000000 0.000000 -168.587394 31.209916 0.000000 151.162986 -1.766927 0.000000 0.000000 0.000000 0.000000 0.000000 0.000000 0.000000 110.450227 82.863024 0.000000 3.638554 19.912832 0.000000 0.000000 0.000000 0.000000 -69.689281 77.314130 0.000000 0.444749 21.059329 0.000000 0.000000 0.000000 0.000000
61.267325 0.009008 -46.910062 0.000000 0.000000 0.000000 101.880328 -77.113485 0.000000 -76.940771 0.778362 0.000000 164.958584 -11.636502 0.000000 0.000000 0.000000 0.000000 0.000000 0.000000 0.000000 -168.841234 40.877532 0.000000 -142.061947 0.443432 0.000000 0.000000 0.000000 0.000000 0.000000 0.000000 0.000000 -167.639621 30.833715 0.000000 152.433715 -1.431842 0.000000 0.000000 0.000000 0.000000 0.000000 0.000000 0.000000 105.289836 83.634516 0.000000 3.663710 19.840948 0.000000 0.000000 0.000000 0.000000 -71.061864 76.096133 0.000000 0.841429 20.950636 0.000000 0.000000 0.000000 0.000000
61.567011 0.009163 -47.032286 0.000000 0.000000 0.000000 102.548888 -76.425084 0.000000 -81.049833 0.183057 0.000000 164.015665 -11.682372 0.000000 0.000000 0.000000 0.000000 0.000000 0.000000 0.000000 -165.230075 42.929821 0.000000 -138.780402 0.289597 0.000000 0.000000 0.000000 0.000000 0.000000 0.000000 0.000000 -166.519687 30.000651 0.000000 150.163231 -1.353251 0.000000 0.000000 0.000000 0.000000 0.000000 0.000000 0.000000 54.511898 83.462042 0.000000 3.460022 19.096095 0.000000 0.000000 0.000000 0.000000 -58.074981 75.731606 0.000000 0.411789 20.746001 0.000000 0.000000 0.000000 0.000000
61.750236 0.009720 -47.076134 0.000000 0.000000 0.000000 103.809596 -75.425064 0.000000 -84.769325 -0.351867 0.000000 163.353501 -11.432970 0.000000 0.000000 0.000000 0.000000 0.000000 0.000000 0.000000 -163.761569 42.638197 0.000000 -139.821956 -0.195301 0.000000 0.000000 0.000000 0.000000 0.000000 0.000000 0.000000 -165.520628 28.636271 0.000000 148.447516 -1.086205 0.000000 0.000000 0.000000 0.000000 0.000000 0.000000 0.000000 56.786590 84.006089 0.000000 3.256030 18.572295 0.000000 0.000000 0.000000 0.000000 -50.806000 76.520468 0.000000 -0.369238 20.449482 0.000000 0.000000 0.000000 0.000000
61.947915 0.010061 -47.100405 0.000000 0.000000 0.000000 99.317189 -74.781990 0.000000 -86.935505 -0.856427 0.000000 163.217170 -11.326893 0.000000 0.000000 0.000000 0.000000 0.000000 0.000000 0.000000 -160.866657 43.159674 0.000000 -141.289747 -0.680689 0.000000 0.000000 0.000000 0.000000 0.000000 0.000000 0.000000 -164.655691 27.706517 0.000000 148.068751 -0.740431 0.000000 0.000000 0.000000 0.000000 0.000000 0.000000 0.000000 53.867077 83.829435 0.000000 2.943726 18.130657 0.000000 0.000000 0.000000 0.000000 -44.195365 75.862874 0.000000 -0.933419 20.430383 0.000000 0.000000 0.000000 0.000000
62.149647 0.009810 -47.107995 0.000000 0.000000 0.000000 84.044234 -74.244178 0.000000 -87.241406 -1.376329 0.000000 163.052032 -11.247442 0.000000 0.000000 0.000000 0.000000 0.000000 0.000000 0.000000 -159.802913 41.853107 0.000000 -141.099245 -1.164811 0.000000 0.000000 0.000000 0.000000 0.000000 0.000000 0.000000 -164.334855 26.976896 0.000000 147.792180 -0.426071 0.000000 0.000000 0.000000 0.000000 0.000000 0.000000 0.000000 52.160951 84.174161 0.000000 2.830630 18.368666 0.000000 0.000000 0.000000 0.000000 -45.079083 75.745580 0.000000 -1.149198 20.569734 0.000000 0.000000 0.000000 0.000000
62.303919 0.009574 -47.092737 0.000000 0.000000 0.000000 77.206527 -73.333405 0.000000 -87.844073 -1.851043 0.000000 162.800278 -11.008446 0.000000 0.000000 0.000000 0.000000 0.000000 0.000000 0.000000 -160.173566 40.200559 0.000000 -141.569352 -1.549798 0.000000 0.000000 0.000000 0.000000 0.000000 0.000000 0.000000 -164.114519 27.038399 0.000000 148.123780 -0.096724 0.000000 0.000000 0.000000 0.000000 0.000000 0.000000 0.000000 62.178249 85.256614 0.000000 2.776471 18.443620 0.000000 0.000000 0.000000 0.000000 -48.443582 76.272765 0.000000 -1.340472 20.570454 0.000000 0.000000 0.000000 0.000000
62.513310 0.009063 -47.097448 0.000000 0.000000 0.000000 71.835991 -72.679033 0.000000 -89.686119 -2.128134 0.000000 162.302124 -10.904658 0.000000 0.000000 0.000000 0.000000 0.000000 0.000000 0.000000 -160.505107 40.004330 0.000000 -141.894232 -1.977381 0.000000 0.000000 0.000000 0.000000 0.000000 0.000000 0.000000 -164.142550 26.659887 0.000000 147.798961 0.081743 0.000000 0.000000 0.000000 0.000000 0.000000 0.000000 0.000000 62.905498 86.076168 0.000000 2.690267 18.392324 0.000000 0.000000 0.000000 0.000000 -49.064400 75.936186 0.000000 -1.539566 20.637702 0.000000 0.000000 0.000000 0.000000
62.651369 0.009230 -47.078261 0.000000 0.000000 0.000000 74.219140 -72.368880 0.000000 -89.279329 -2.439764 0.000000 162.465923 -10.776583 0.000000 0.000000 0.000000 0.000000 0.000000 0.000000 0.000000 -160.791400 40.193978 0.000000 -141.571277 -2.424003 0.000000 0.000000 0.000000 0.000000 0.000000 0.000000 0.000000 -163.691596 26.769104 0.000000 147.895288 0.295515 0.000000 0.000000 0.000000 0.000000 0.000000 0.000000 0.000000 61.013357 86.587887 0.000000 2.655462 18.252960 0.000000 0.000000 0.000000 0.000000 -49.079452 75.724152 0.000000 -1.687967 20.682324 0.000000 0.000000 0.000000 0.000000
62.827033 0.009352 -47.100051 0.000000 0.000000 0.000000 77.147954 -72.275748 0.000000 -91.781288 -2.594252 0.000000 161.843735 -10.851686 0.000000 0.000000 0.000000 0.000000 0.000000 0.000000 0.000000 -160.113900 40.215742 0.000000 -142.104820 -2.335562 0.000000 0.000000 0.000000 0.000000 0.000000 0.000000 0.000000 -164.493064 26.292372 0.000000 147.098019 0.298747 0.000000 0.000000 0.000000 0.000000 0.000000 0.000000 0.000000 61.705449 86.824340 0.000000 2.414035 17.933448 0.000000 0.000000 0.000000 0.000000 -47.867601 75.272637 0.000000 -1.869210 20.584069 0.000000 0.000000 0.000000 0.000000
62.944889 0.009376 -47.111541 0.000000 0.000000 0.000000 81.171576 -72.187859 0.000000 -91.678142 -2.738192 0.000000 162.057520 -10.728151 0.000000 0.000000 0.000000 0.000000 0.000000 0.000000 0.000000 -160.472259 39.909316 0.000000 -141.759806 -2.472480 0.000000 0.000000 0.000000 0.000000 0.000000 0.000000 0.000000 -164.418876 26.173004 0.000000 146.413555 0.313480 0.000000 0.000000 0.000000 0.000000 0.000000 0.000000 0.000000 71.942514 87.177568 0.000000 2.299456 17.824271 0.000000 0.000000 0.000000 0.000000 -48.877007 75.224413 0.000000 -1.931913 20.320348 0.000000 0.000000 0.000000 0.000000
63.135132 0.009448 -47.122419 0.000000 0.000000 0.000000 89.810276 -72.283808 0.000000 -91.775623 -2.822045 0.000000 162.044329 -10.770716 0.000000 0.000000 0.000000 0.000000 0.000000 0.000000 0.000000 -161.053878 38.969057 0.000000 -142.958688 -2.456304 0.000000 0.000000 0.000000 0.000000 0.000000 0.000000 0.000000 -164.287280 26.082766 0.000000 146.064357 0.292050 0.000000 0.000000 0.000000 0.000000 0.000000 0.000000 0.000000 51.340195 86.606165 0.000000 2.038040 17.546369 0.000000 0.000000 0.000000 0.000000 -48.092599 74.733608 0.000000 -2.070548 20.161047 0.000000 0.000000 0.000000 0.000000
63.320795 0.009432 -47.126628 0.000000 0.000000 0.000000 87.623572 -72.262117 0.000000 -90.757593 -2.945891 0.000000 161.991166 -10.898109 0.000000 0.000000 0.000000 0.000000 0.000000 0.000000 0.000000 -160.398748 39.789952 0.000000 -140.795330 -2.705453 0.000000 0.000000 0.000000 0.000000 0.000000 0.000000 0.000000 -164.151135 26.142601 0.000000 144.292102 0.318987 0.000000 0.000000 0.000000 0.000000 0.000000 0.000000 0.000000 45.439244 86.883241 0.000000 1.982244 17.589820 0.000000 0.000000 0.000000 0.000000 -49.020927 74.261888 0.000000 -2.183775 20.480545 0.000000 0.000000 0.000000 0.000000
63.501212 0.009140 -47.176607 0.000000 0.000000 0.000000 70.739069 -71.450014 0.000000 -91.744610 -2.991318 0.000000 161.985505 -10.974199 0.000000 0.000000 0.000000 0.000000 0.000000 0.000000 0.000000 -161.369922 38.380953 0.000000 -141.491262 -2.782436 0.000000 0.000000 0.000000 0.000000 0.000000 0.000000 0.000000 -165.160879 24.552944 0.000000 144.366655 0.300379 0.000000 0.000000 0.000000 0.000000 0.000000 0.000000 0.000000 45.897532 87.299406 0.000000 1.851903 17.602599 0.000000 0.000000 0.000000 0.000000 -50.054801 73.952993 0.000000 -2.330590 20.970920 0.000000 0.000000 0.000000 0.000000
